# xmcd
#
# Track frame offsets:
#	150
#	11144
#	25360
#	38898
#	52733
#	66699
#	85325
#	99975
#	115999
#	126235
#
# Disc length: 1831 seconds
#
# Revision: 1
# Processed by: cddbd v1.5.1PL0 Copyright (c) Steve Scherf et al.
# Submitted via: audiograbber 1.83.01
#
DISCID=8607250a
DTITLE=Big Bill Broonzy - Sixteen Tons
DYEAR=2003
DGENRE=Blues
TTITLE0=Baby, Please Don't Go
TTITLE1=Letter To My Baby
TTITLE2=John Henry
TTITLE3=Down By The Riverside
TTITLE4=Hey Bud Blues
TTITLE5=Coal Black Curly Hair
TTITLE6=House Rent Stomp
TTITLE7=When Did You Leave Heaven
TTITLE8=Sixteen Tons
TTITLE9=St. Louis Blues
EXTD=2003 Grammercy Records, U.S.A. -  Legends Of The Blues Series
EXTT0=
EXTT1=
EXTT2=
EXTT3=
EXTT4=
EXTT5=
EXTT6=
EXTT7=
EXTT8=
EXTT9=
PLAYORDER=
